# xmcd
#
# Track frame offsets:
#	150
#	12600
#	29017
#	48360
#	62510
#	77672
#	91047
#	106272
#	118172
#	133685
#	149127
#	165137
#	183737
#	199230
#	212300
#	229125
#	243037
#
# Disc length: 3522
#
# Revision: 1
# Processed by: cddbd v1.5.1PL0 Copyright (c) Steve Scherf et al.
# Submitted via: VisiTrax 2.9.5.180 - For more info visit www.synapsa.com
# Normalized: r0:DSETVAR1
#
DISCID=e60dc011
DTITLE=Various Artist - CDX 107 April 1995
DYEAR=1995
DGENRE=
TTITLE0=Lee Roy Parnell - A little bit of you
TTITLE1=Mavericks - All that heaven will aloud
TTITLE2=Shania Twain - Any man of mine
TTITLE3=Archer and Park - Bones
TTITLE4=Diamond Rio - Finish what we started
TTITLE5=Dallas County Line - Honk if you love to honky tonk
TTITLE6=Lorrie Morgan - I didn't know my own strength
TTITLE7=Geezinslaws - Monkey man
TTITLE8=Clay Walker - My heart will never know
TTITLE9=Bryan White - Someone else's star
TTITLE10=Tracy Lawrence - Texas tornado
TTITLE11=Rhett Akins - That ain't my truck
TTITLE12=Neal McCoy - They're playing our song
TTITLE13=Willie Nelson - Curtis Potter - Turn me loose and let me swing
TTITLE14=David Ball - What do you want with his love
TTITLE15=Steve Earle - Emmylou Harris - Nothin' without ou
TTITLE16=Aaron Tippin - She feels like a brand new man tonight (dancemix)
EXTD=
EXTT0=
EXTT1=
EXTT2=
EXTT3=
EXTT4=
EXTT5=
EXTT6=
EXTT7=
EXTT8=
EXTT9=
EXTT10=
EXTT11=
EXTT12=
EXTT13=
EXTT14=
EXTT15=
EXTT16=
PLAYORDER=
